<mxfile host="" modified="2020-05-24T03:18:30.993Z" agent="5.0 (Macintosh; Intel Mac OS X 10_15_4) AppleWebKit/537.36 (KHTML, like Gecko) Code/1.45.1 Chrome/78.0.3904.130 Electron/7.2.4 Safari/537.36" etag="HwoN0dTHdtjKGfU6d0pu" version="13.1.3">
    <diagram id="6hGFLwfOUW9BJ-s0fimq" name="Page-1">
        <mxGraphModel dx="1193" dy="664" grid="1" gridSize="10" guides="1" tooltips="1" connect="1" arrows="1" fold="1" page="1" pageScale="1" pageWidth="827" pageHeight="1169" math="0" shadow="0">
            <root>
                <mxCell id="0"/>
                <mxCell id="1" parent="0"/>
                <mxCell id="3" value="&lt;span style=&quot;color: rgb(97 , 218 , 251) ; font-size: 21px ; background-color: rgb(40 , 44 , 52)&quot;&gt;React 系列教程(Hook)&lt;/span&gt;" style="rounded=1;whiteSpace=wrap;html=1;" parent="1" vertex="1">
                    <mxGeometry x="299" y="40" width="230" height="50" as="geometry"/>
                </mxCell>
                <mxCell id="5" value="&lt;div style=&quot;font-size: 17px&quot;&gt;&lt;br&gt;&lt;/div&gt;" style="shape=ext;double=1;rounded=1;whiteSpace=wrap;html=1;align=left;" parent="1" vertex="1">
                    <mxGeometry x="100" y="100" width="690" height="150" as="geometry"/>
                </mxCell>
                <mxCell id="6" value="" style="shape=actor;whiteSpace=wrap;html=1;" parent="1" vertex="1">
                    <mxGeometry x="150" y="135" width="52.5" height="70" as="geometry"/>
                </mxCell>
                <mxCell id="61" style="edgeStyle=orthogonalEdgeStyle;rounded=0;orthogonalLoop=1;jettySize=auto;html=1;exitX=0.5;exitY=1;exitDx=0;exitDy=0;entryX=0.5;entryY=0;entryDx=0;entryDy=0;" parent="1" source="9" target="17" edge="1">
                    <mxGeometry relative="1" as="geometry"/>
                </mxCell>
                <mxCell id="9" value="&lt;span style=&quot;color: rgb(97 , 218 , 251) ; font-size: 17px ; text-align: left&quot;&gt;&amp;nbsp;&amp;nbsp;针对人群：&lt;/span&gt;" style="shape=ext;double=1;rounded=1;whiteSpace=wrap;html=1;" parent="1" vertex="1">
                    <mxGeometry x="-30" y="100" width="120" height="150" as="geometry"/>
                </mxCell>
                <mxCell id="12" value="" style="shape=ext;double=1;rounded=1;whiteSpace=wrap;html=1;" parent="1" vertex="1">
                    <mxGeometry x="100" y="279" width="690" height="110" as="geometry"/>
                </mxCell>
                <mxCell id="11" value="&lt;ul style=&quot;font-size: 17px&quot;&gt;&lt;li&gt;&lt;font color=&quot;#61dafb&quot; style=&quot;font-size: 17px&quot;&gt;讲解常用的 Hook，熟悉使用方法&lt;/font&gt;&lt;/li&gt;&lt;li&gt;&lt;font color=&quot;#61dafb&quot; style=&quot;font-size: 17px&quot;&gt;结合React场景熟练运用&lt;/font&gt;&lt;/li&gt;&lt;li&gt;&lt;font color=&quot;#61dafb&quot;&gt;深入理解 Hook 原理&lt;/font&gt;&lt;/li&gt;&lt;li&gt;&lt;font color=&quot;#61dafb&quot; style=&quot;font-size: 17px&quot;&gt;使用react做一些练手的项目&lt;/font&gt;&lt;/li&gt;&lt;/ul&gt;" style="text;strokeColor=none;fillColor=none;html=1;whiteSpace=wrap;verticalAlign=middle;overflow=hidden;" parent="1" vertex="1">
                    <mxGeometry x="230" y="267.78" width="320" height="110" as="geometry"/>
                </mxCell>
                <mxCell id="62" style="edgeStyle=orthogonalEdgeStyle;rounded=0;orthogonalLoop=1;jettySize=auto;html=1;exitX=0.5;exitY=1;exitDx=0;exitDy=0;entryX=0.5;entryY=0;entryDx=0;entryDy=0;" parent="1" source="17" target="19" edge="1">
                    <mxGeometry relative="1" as="geometry"/>
                </mxCell>
                <mxCell id="17" value="&lt;span style=&quot;color: rgb(97 , 218 , 251) ; font-size: 17px ; text-align: left&quot;&gt;&amp;nbsp; 内容：&lt;/span&gt;" style="shape=ext;double=1;rounded=1;whiteSpace=wrap;html=1;" parent="1" vertex="1">
                    <mxGeometry x="-30" y="279" width="120" height="110" as="geometry"/>
                </mxCell>
                <mxCell id="67" value="" style="edgeStyle=orthogonalEdgeStyle;rounded=0;orthogonalLoop=1;jettySize=auto;html=1;" parent="1" source="19" target="21" edge="1">
                    <mxGeometry relative="1" as="geometry"/>
                </mxCell>
                <mxCell id="19" value="&lt;span style=&quot;color: rgb(97 , 218 , 251) ; font-size: 17px ; text-align: left&quot;&gt;&amp;nbsp; 学完之后能达到的程度：&lt;/span&gt;" style="shape=ext;double=1;rounded=1;whiteSpace=wrap;html=1;" parent="1" vertex="1">
                    <mxGeometry x="-30" y="410" width="120" height="110" as="geometry"/>
                </mxCell>
                <mxCell id="21" value="&lt;span style=&quot;color: rgb(97 , 218 , 251) ; font-size: 17px ; text-align: left&quot;&gt;&amp;nbsp;进阶 ：&lt;/span&gt;" style="shape=ext;double=1;rounded=1;whiteSpace=wrap;html=1;" parent="1" vertex="1">
                    <mxGeometry x="-30" y="540" width="120" height="70" as="geometry"/>
                </mxCell>
                <mxCell id="22" value="" style="shape=ext;double=1;rounded=1;whiteSpace=wrap;html=1;" parent="1" vertex="1">
                    <mxGeometry x="100" y="410" width="690" height="110" as="geometry"/>
                </mxCell>
                <mxCell id="23" value="&lt;ul&gt;&lt;li style=&quot;font-size: 17px&quot;&gt;&lt;font color=&quot;#61dafb&quot;&gt;能调用API做工作中的前端&lt;/font&gt;&lt;/li&gt;&lt;li&gt;&lt;font color=&quot;#61dafb&quot; style=&quot;font-size: 17px&quot;&gt;从0到部署上线(heroku, github page)&lt;/font&gt;&lt;font color=&quot;#61dafb&quot;&gt;&lt;span style=&quot;font-size: 17px&quot;&gt;💥&lt;/span&gt;&lt;/font&gt;&lt;/li&gt;&lt;li style=&quot;font-size: 17px&quot;&gt;&lt;span style=&quot;color: rgb(97 , 218 , 251)&quot;&gt;下次被面试官问项目的时候用URL塞住面试官的嘴🤐！&lt;/span&gt;&lt;br&gt;&lt;/li&gt;&lt;/ul&gt;" style="text;strokeColor=none;fillColor=none;html=1;whiteSpace=wrap;verticalAlign=middle;overflow=hidden;" parent="1" vertex="1">
                    <mxGeometry x="230" y="405" width="470" height="110" as="geometry"/>
                </mxCell>
                <mxCell id="25" value="" style="shape=ext;double=1;rounded=1;whiteSpace=wrap;html=1;" parent="1" vertex="1">
                    <mxGeometry x="100" y="540" width="690" height="70" as="geometry"/>
                </mxCell>
                <mxCell id="26" value="&lt;ul&gt;&lt;li style=&quot;font-size: 17px&quot;&gt;&lt;font color=&quot;#61dafb&quot;&gt;React相关的生态(next, graphql, react router, redux...)&lt;/font&gt;&lt;/li&gt;&lt;/ul&gt;" style="text;strokeColor=none;fillColor=none;html=1;whiteSpace=wrap;verticalAlign=middle;overflow=hidden;" parent="1" vertex="1">
                    <mxGeometry x="230" y="540" width="470" height="70" as="geometry"/>
                </mxCell>
                <mxCell id="51" value="&lt;div style=&quot;text-align: left&quot;&gt;&lt;font color=&quot;#61dafb&quot;&gt;&lt;span style=&quot;font-size: 17px&quot;&gt;①在用class component，想学但没时间学Hook🧑‍💻。&lt;/span&gt;&lt;/font&gt;&lt;br&gt;&lt;/div&gt;&lt;div style=&quot;text-align: left&quot;&gt;&lt;span style=&quot;font-size: 17px&quot;&gt;&lt;font color=&quot;#61dafb&quot;&gt;②掌握了其他前端框架，想了解React🧏‍♀️。&lt;/font&gt;&lt;/span&gt;&lt;span style=&quot;color: rgb(97 , 218 , 251) ; font-size: 17px&quot;&gt;&amp;nbsp; &amp;nbsp; &amp;nbsp; &amp;nbsp; &amp;nbsp; &amp;nbsp; &amp;nbsp; &amp;nbsp; &amp;nbsp; &amp;nbsp; &amp;nbsp; &amp;nbsp; &amp;nbsp; &amp;nbsp;&lt;/span&gt;&lt;/div&gt;&lt;div style=&quot;text-align: left&quot;&gt;&lt;span style=&quot;font-size: 17px&quot;&gt;&lt;font color=&quot;#61dafb&quot;&gt;③只学了html,css,js基础，想深入了解前端开发🙋。&lt;/font&gt;&lt;/span&gt;&lt;span style=&quot;color: rgb(97 , 218 , 251) ; font-size: 17px&quot;&gt;&amp;nbsp; &amp;nbsp;&amp;nbsp;&lt;/span&gt;&lt;/div&gt;&lt;div style=&quot;text-align: left&quot;&gt;&lt;font color=&quot;#61dafb&quot;&gt;&lt;span style=&quot;font-size: 17px&quot;&gt;④从事开发并想了解日本IT的🎎。&lt;/span&gt;&lt;/font&gt;&lt;br&gt;&lt;/div&gt;&lt;br style=&quot;text-align: left&quot;&gt;&lt;div style=&quot;text-align: left ; font-size: 17px&quot;&gt;&lt;font color=&quot;#61dafb&quot;&gt;※我会尽量解释到位，有任何问题都可以在留言去评论，我都会回复的。&lt;br&gt;&lt;/font&gt;&lt;/div&gt;&lt;font style=&quot;text-align: left ; font-size: 17px&quot;&gt;&lt;/font&gt;" style="text;html=1;strokeColor=none;fillColor=none;align=center;verticalAlign=middle;whiteSpace=wrap;rounded=0;" parent="1" vertex="1">
                    <mxGeometry x="230" y="80" width="560" height="200" as="geometry"/>
                </mxCell>
                <mxCell id="52" value="" style="shape=datastore;whiteSpace=wrap;html=1;" parent="1" vertex="1">
                    <mxGeometry x="146.25" y="430" width="60" height="60" as="geometry"/>
                </mxCell>
                <mxCell id="53" value="more react" style="ellipse;shape=umlControl;whiteSpace=wrap;html=1;" parent="1" vertex="1">
                    <mxGeometry x="150" y="550" width="50" height="50" as="geometry"/>
                </mxCell>
                <mxCell id="57" value="" style="html=1;whiteSpace=wrap;aspect=fixed;shape=isoCube;backgroundOutline=1;" parent="1" vertex="1">
                    <mxGeometry x="146.25" y="290" width="70" height="77.78" as="geometry"/>
                </mxCell>
            </root>
        </mxGraphModel>
    </diagram>
</mxfile>